<?xml version="1.0" encoding="UTF-8"?>
<svg id="_Layer_1" xmlns="http://www.w3.org/2000/svg" version="1.1" viewBox="0 0 300 300">
  <!-- Generator: Adobe Illustrator 29.3.0, SVG Export Plug-In . SVG Version: 2.1.0 Build 146)  -->
  <defs>
    <style>
      .st0 {
        fill: #c7c500;
        stroke: #000;
        stroke-miterlimit: 10;
      }
    </style>
  </defs>
  <path d="M205,132.9c-1.5-.4-.9-1.9-3,.7-1.7,0-11.4,3.9-11.8,3.4s.2-1.1.4-1.5c1-1.5,8.5-7.7,8.3-8.7l-9.8-10.3-1.2-.4-10.6,11.1,10.6,11c-1.3.7-5,3.6-6.2,3.3l-9.7-9.1-12.3,12.4c-.2,1.4,8.7,8.7,9.1,10s-2.6,5.7-2.9,5.9c-.7.4-1.7-.4-2.2-.8-1.8-1.3-8.9-10-9.6-10l-10.5,11.3v.8l9.3,10.4c1.4.2,9-9.5,10.6-10.2s1.2.2,1.3.2c.4.4-2.6,10.2-3,11-.6,1.2-3.4,3.1-3.6,3.9-.3,1.3,1.5,1.6,2,2.4,1.4,1.9,1,7.5,1.3,10,.5,3.6,1.6,6.7,2.4,10.2-1.3,1.8-25.8,3.3-29.7,3.8-9.6,1.2-20.1,3.5-29.2,7.1-3.2,1.3-14.2,6.3-15.8,8.8s-.6,3.5-1.3,4.9c-1.9,3.7-11.4,11.5-14.9,15.1-6.2,6.3-12.1,13.3-18.5,19.4s-8.9,7.3-14.5,3.7c-1.6-1-8-7.5-8.7-9.2-1.5-3.3-1.3-6.4-.6-9.8,8.6-8.1,17-16.5,25.3-24.9,4-4,7.6-8.6,11.9-12.3s4.7-1.5,7-5.1c6.8-11.2,11.4-30.9,12.4-43.9s0-19.2,1.3-28.7c7-53.4,77.8-105.8,127.8-70.7,20.6,14.5,27.8,38.7,23.9,63-.4,2.3-3.5,17.4-4.4,18.1-.9.7-.7,0-1.1-.1-1.6-.8-2.9-1.7-4.7-2.4s-5.9-1.6-6.8-2.3-.2-.7-.4-1.1-.7-.2-.7-.4c0-.8,1.8-6,2.2-7.4.6-2.4,1.9-6.2.7-8.3s-3-3.6-3.9-2.4l-11.4,12c1.1,2.7,3,3.4,5.1,4.7s.2.7.3,1.3c-2.7-.4-7.4.6-9.8,0h-.4ZM183.1,64c-.7.7,5.3,7.7,6.1,7.9,1.1.3,5-4.7,5.1-5.7s-.2-.7-.7-.9c-1.1-.5-10.1-1.8-10.5-1.3h0ZM162.2,66.1c-.4-.4-9.6,2.7-9.6,3.5l4.3,3.5c2-2.1,5.1-3.9,5.3-7.1h0ZM173.4,67c-1.5.4-9.1,9.6-11.1,11.1l10.3,11.8,12.3-12.3c0-.6-6.1-6.6-7.1-7.5s-3.6-3.3-4.3-3.1h0ZM204.5,87.3c.5.3,1,0,1.4-.3.9-.6,9.4-9.1,9.4-9.8-1.8-1.3-10.2-8.8-11.8-8.5s-7.7,7.6-8.6,8.8l9.6,9.8h0ZM145.8,72.9c-1.7,0-12.4,7.9-12.7,9.4-.6,2.2,5.8,6.1,7.2,7.6l11-11.5c0-.5-4.6-5.6-5.5-5.5ZM189.2,82.9c-1.6.4-9.7,10.2-11.5,11.9,3,3.6,6.5,7.1,9.8,10.6l13.1-12.8c.2-.9-6.7-5.5-7.9-6.6s-2.5-3.4-3.5-3.1h0ZM167.7,94.9l-.4-1-10.6-10.2-11.1,11.4c0,.8,9.4,10.7,10.2,10.7l11.9-10.9h0ZM219.3,85c-1.1,0-8.2,6.7-8.2,7.7l8.8,10c1.5,2.4,4.2-1.2,5.4-2.5-.8-4.1-2.2-8.2-3.8-12s-1-3.3-2.1-3.2h0ZM127.1,88.3c-1.7.4-8.1,10.2-9.8,11.9-.2.9,4.6,5.8,5.2,5.9s.8,0,1.2-.3l10.6-10.7c0-.4-5.3-6-6-6.4s-.6-.5-1.2-.3h0ZM205.1,97.9l-11.1,12.7c0,1,9,9.1,10.3,10.6l12.2-11.9c-1.8-3-4.6-5.1-7.1-7.5s-2.9-4.3-4.3-3.9h0ZM172.5,99.5c-1,1.8-10.5,10.6-10.6,11.5-.2,1.3,8.7,9.1,9.8,11,1.3-1.8,11.3-10.5,11.4-11.5s-8.9-9.8-10.6-11h0ZM150.5,110.4l-11.3-10c-1.6.9-10.8,10.6-10.7,11.4,2.1,1.7,8.8,11.2,11,11.1s7.7-7.5,8.8-8.7,2.7-2.9,2.2-3.7h0ZM106.8,122.4c.8.2,1-.4,1.5-.8,2.2-2,4.8-5.2,7.1-7.5s1.8-1.2,2.1-1.7c.7-1.2-3.2-5-4.5-4.6s-4.3,8.1-4.8,9.5-1.6,4.8-1.4,5.1ZM154.3,139.5c.6.4,4.1-3.5,4.8-4.2,1.7-1.7,5.3-5.2,6.5-6.9s.8-1,.8-1.7c-2.8-3.7-6.6-6.8-9.9-10.2l-11.8,11.9c0,1.2,9.1,8.8,9.6,11.1h0ZM122.5,117.1c-1.5.4-9.7,10.6-11.5,12.3l11.1,11.4,12.2-12.3-10.6-11c-.3-.3-.7-.5-1.2-.3h0ZM149.7,144.9l-.3-1.4-10.2-10.2-11.9,12.7c0,.4,5.1,5.9,5.8,6.7s3.9,4.1,4.7,3.9,9.9-10.5,11.9-11.7ZM105.1,156.7c.5.6,3.9-2.5,4.6-3.1,2.6-2.3,4.9-5.1,7.5-7.5-3.2-2.8-6-6.5-9.2-9.2s-3.3-3-3.3-1.2c-1.1,7-.6,14.1.4,21.1h0ZM121.6,150.4c-1.3,2.4-13.1,13.3-13.1,14.8s8.4,10.8,9.9,11l14.7-14.8-11.4-11h-.1ZM147.6,177.9c.3-.5,0-1-.3-1.4-.5-.8-7.7-8-8.6-8.6s-.5-.4-.9-.4c-5,3.7-9.1,8.4-13.1,13.1.3,1.2,13.1,5.6,14.7,5.2,2.2-2.4,4.4-4.9,6.7-7.1.4-.4,1.4-.8,1.4-.9h.1ZM113.8,192.1c-5.7-3-10.3-7.6-14.4-12.5l-1.1-.4-6.7,21.7,21.5-7.9.6-.9h0ZM153,182.6c-.8-.6-4.7,3.3-4.1,3.7l6.7-.4-2.5-3.3h0Z"/>
  <path class="st0" d="M229.2,149.2c1.9-.5,10.2,7.4,11.7,9.2,15,17.8,10.5,48.5-11.5,58.2-17.4,7.6-37.5-2.7-32.8-23.2s15.4-13,23.9-21.2c5.3-5.1,8.2-12.6,8.6-19.8s-.8-2.9.2-3.1h0Z"/>
  <path class="st0" d="M196,218.8c-1.1,1.1-10.6-6.7-11.9-7.9-27.2-27-7-70.2,30.4-67.2,4.5.4,6.1.6,6.8,5.3s-.4,9.5-2.6,13.4c-5,8.8-13.6,8.6-20.4,14.6-11.4,10-12.8,26.2-4.3,38.5.4.6,2.7,2.5,2,3.2h0Z"/>
</svg>